<svg width="50" height="50" viewBox="0 0 50 50" fill="none" xmlns="http://www.w3.org/2000/svg">
<path d="M31.5085 29.5077C31.5085 33.1236 28.5676 36.0163 24.9999 36.0163C21.3841 36.0163 18.4914 33.1236 18.4914 29.5077C18.4914 29.0738 18.5396 28.5917 18.6361 28.2061L6.63141 28.2059V31.4844C6.63141 32.2076 7.1617 32.8344 7.93304 32.8826L12.5131 33.3647C12.706 33.3647 12.8506 33.5094 12.8506 33.6539C13.0434 34.1842 13.2363 34.6663 13.4774 35.1484C13.5256 35.2931 13.5256 35.4859 13.4292 35.6306L10.5365 39.1983C10.0544 39.7767 10.1026 40.5964 10.6329 41.1267L13.4292 43.9231C13.9595 44.4534 14.7792 44.5015 15.3577 44.0194L18.9254 41.1267C19.0701 41.0304 19.2628 40.982 19.3593 41.0786C19.8414 41.3196 20.3717 41.5125 20.8538 41.7054C20.9985 41.7536 21.1431 41.8983 21.1431 42.0428L21.577 46.6229C21.6734 47.3461 22.252 47.9245 23.0234 47.9245H26.9766C27.6998 47.9245 28.3266 47.3461 28.423 46.6229L28.9051 42.0428C28.9051 41.8981 29.0015 41.7536 29.1943 41.7054C29.7246 41.5125 30.2067 41.3196 30.6889 41.0786C30.8335 40.9822 31.0263 41.0304 31.1228 41.1267L34.6905 44.0194C35.2689 44.5015 36.0887 44.4534 36.619 43.9231L39.4153 41.1267C39.9456 40.5964 39.9938 39.7767 39.5117 39.1983L36.5708 35.6306C36.4744 35.4859 36.4744 35.2931 36.5226 35.1484C36.7637 34.6663 36.9566 34.1842 37.1494 33.6539C37.1976 33.5092 37.3423 33.3647 37.4869 33.3647L42.067 32.8826C42.7901 32.8344 43.3686 32.2076 43.3686 31.4844V28.2059H31.3639C31.4604 28.6399 31.5086 29.0738 31.5086 29.5077L31.5085 29.5077Z" fill="#2626E3"/>
<path d="M41.8258 18.0334C40.9579 12.8265 37.6796 8.39108 33.2441 5.93229L32.5209 11.8623C32.3762 12.8265 31.5567 13.5497 30.5925 13.5497C30.4961 13.5497 30.3514 13.5497 30.2551 13.5015C29.2427 13.3087 28.5195 12.2962 28.664 11.2838L29.6282 3.28073C29.7246 2.70227 29.2425 2.12361 28.664 2.07544H21.3358C20.709 2.07544 20.2753 2.6539 20.3716 3.28073L21.384 11.3321C21.5287 12.3926 20.8056 13.3569 19.793 13.5497C19.6966 13.5497 19.5519 13.5979 19.4555 13.5979C18.4913 13.5979 17.6234 12.8748 17.5271 11.9105L16.8039 5.9805C12.3202 8.43925 9.09006 12.8748 8.22225 18.0816C6.48668 18.3228 5.23322 19.7692 5.23322 21.5531V23.0476C5.23322 23.8189 5.86005 24.3976 6.58322 24.3976H43.4168C44.1882 24.3976 44.7668 23.7708 44.7668 23.0476V21.5531C44.7667 19.7692 43.5132 18.3228 41.8258 18.0336L41.8258 18.0334Z" fill="#2626E3"/>
</svg>
