<svg width="50" height="50" viewBox="0 0 50 50" fill="none" xmlns="http://www.w3.org/2000/svg">
<path d="M5.65872 41.1909C5.23515 41.9438 5.7998 42.885 6.69393 42.885L10.788 42.7437C11.1645 42.7437 11.5879 42.932 11.7762 43.2613L13.8938 46.7907C14.3644 47.5436 15.4468 47.5436 15.8702 46.7437L23.2584 33.332C19.1176 32.9086 15.4941 31.0263 12.7647 28.2968L5.65872 41.1909Z" fill="#2626E3"/>
<path d="M44.3408 41.191L37.2349 28.2499C34.5055 31.0264 30.835 32.9087 26.788 33.3322L34.1761 46.7439C34.5997 47.4968 35.6819 47.5438 36.1525 46.7909L38.2702 43.2615C38.5054 42.9322 38.882 42.6969 39.2583 42.7439L43.3524 42.8851C44.1997 42.885 44.7643 41.9438 44.3408 41.1909V41.191Z" fill="#2626E3"/>
<path d="M38.5996 16.25C38.5996 8.72069 32.482 2.65015 24.9997 2.65015C17.5174 2.65015 11.3998 8.72069 11.3998 16.25C11.3998 23.7794 17.5174 29.8499 24.9997 29.8499C32.482 29.8499 38.5996 23.7323 38.5996 16.25ZM31.682 15.1676L29.2351 17.5205C29.0938 17.6618 29.0468 17.8499 29.0468 18.0382L29.6587 21.3793C29.7999 22.1792 28.9528 22.791 28.2469 22.4145L25.2351 20.8144C25.0469 20.7204 24.8586 20.7204 24.7175 20.8144L21.7057 22.4146C20.9999 22.7912 20.1527 22.1793 20.294 21.3794L20.9058 18.0383C20.9528 17.85 20.8588 17.6618 20.7176 17.5207L18.2706 15.1678C17.706 14.6032 17.9883 13.6148 18.7882 13.5207L22.1763 13.0501C22.3646 13.0031 22.5057 12.9089 22.5999 12.7208L24.0587 9.662C24.388 8.9091 25.4704 8.9091 25.7998 9.662L27.3528 12.7677C27.4468 12.9559 27.5881 13.05 27.7763 13.097L31.1645 13.5676C31.9645 13.6618 32.2939 14.65 31.682 15.1676Z" fill="#2626E3"/>
</svg>
