<svg width="50" height="50" viewBox="0 0 50 50" fill="none" xmlns="http://www.w3.org/2000/svg">
<path d="M41.2468 10.3225C36.0049 9.89353 31.0965 7.65388 27.3795 3.93684L26.4264 2.93615C26.0451 2.55485 25.521 2.36438 24.9968 2.36438C24.4727 2.36438 23.9485 2.55503 23.5672 2.93615L22.6141 3.937C18.897 7.65408 13.9888 9.89373 8.74685 10.3226C7.69854 10.4179 6.88831 11.2757 6.88831 12.324V18.0901C6.88831 30.1942 13.4645 41.4405 23.996 47.3972C24.2819 47.5879 24.6632 47.6355 24.9967 47.6355C25.3302 47.6355 25.6639 47.5403 25.9974 47.3972C36.5289 41.4405 43.1052 30.1942 43.1052 18.0901V12.324C43.1052 11.2755 42.2951 10.4178 41.2466 10.3225H41.2468ZM24.9968 34.3877C21.4704 34.3877 17.8964 32.1956 17.8964 27.2872C17.8964 24.7615 21.4228 18.6619 23.5195 15.2785C24.1867 14.1823 25.807 14.1823 26.5218 15.2785C28.6186 18.6618 32.145 24.7616 32.145 27.2872C32.0972 32.1956 28.5232 34.3877 24.9969 34.3877H24.9968Z" fill="#2626E3"/>
<path d="M22.3758 25.0952C22.2806 24.9522 22.1376 24.8569 21.9469 24.8093C21.7563 24.8093 21.6134 24.9524 21.518 25.0952C21.1845 26.0483 20.9938 26.7631 20.9938 27.2873C20.9938 30.8613 23.8055 31.2426 24.9968 31.2426C25.4733 31.2426 26.0451 31.1474 26.5694 31.0043C26.7601 30.9567 26.8553 30.8137 26.8553 30.623C26.8553 30.4324 26.7601 30.2895 26.617 30.1941C24.9015 29.2888 23.4719 27.5733 22.3758 25.0952L22.3758 25.0952Z" fill="#2626E3"/>
</svg>
